<?xml version="1.0" encoding="UTF-8"?>
<svg id="Capa_2" data-name="Capa 2" xmlns="http://www.w3.org/2000/svg" viewBox="0 0 99.75 36.67">
  <defs>
    <style>
      .cls-1 {
        fill: #169878;
      }
    </style>
  </defs>
  <g id="Capa_1-2" data-name="Capa 1">
    <g>
      <path class="cls-1" d="m17.41,13.25h-.52c0-.74-.9-1.28-2.36-1.51-.8-.12-1.62-.12-2.43-.01l-1.13.15v14.73c0,2.52.46,4.01,1.8,4.01v.52H4.64v-.52c1.33,0,1.8-1.48,1.8-4.01v-14.73l-1.13-.15c-.81-.1-1.62-.11-2.43.01-1.47.23-2.36.77-2.36,1.51h-.52v-2.41h17.41v2.41Z"/>
      <path class="cls-1" d="m28.5,25.38l.52.17c-.52,2.84-2.58,5.57-6.41,5.57-4.21,0-7.2-3.02-7.2-7.55s2.73-7.55,6.82-7.55,6.79,3.02,6.79,7.55h-8.97c.35,2.96,1.71,4.56,4.38,4.56,1.86,0,3.48-1.19,4.06-2.76Zm-8.56-3.6c0,.44,0,.74.03,1.15h4.5c0-4.85-.62-6.44-2.25-6.44s-2.28,1.35-2.28,5.29Z"/>
      <path class="cls-1" d="m37.38,22.07c8.91.29,5.37,8.5,9.37,8.5v.52h-1.57c-8.33,0-4.09-8.5-8.18-8.68l-1.28,1.19v2.99c0,2.52.46,4.01,1.8,4.01v.52h-8.13v-.52c1.34,0,1.8-1.48,1.8-4.01v-10.71c0-.73,0-1.86-.87-1.86v-.52c.67,0,3.57-1.16,4.88-2.7h.52l-.04,12,5.63-5.14c.46-.52,0-.54-.52-.54v-.52h3.11v.52c-.52,0-1.39.26-2.03.78l-4.5,4.15Z"/>
      <path class="cls-1" d="m61.24,23.58c0,4.53-2.73,7.55-6.94,7.55-.81,0-1.51-.09-2.15-.2v1.22c0,2.52.46,4.01,1.8,4.01v.52h-8.1v-.52c1.13,0,1.65-1.1,1.77-2.99v-11.73c0-.73,0-1.86-.87-1.86v-.52c.67,0,3.57-1.16,4.88-2.7h.52v1.54c.49-1.1,1.45-1.86,3.28-1.86,3.08,0,5.8,3.02,5.8,7.55Zm-4.53,0c0-4.53-.7-6.36-2.41-6.36-1.54,0-2.15,1.16-2.15,4.06v4.59c0,3.6.61,4.73,2.15,4.73,1.71,0,2.41-1.8,2.41-7.02Z"/>
      <path class="cls-1" d="m79.17,28.63c-.12.38-.84,2.5-3.74,2.5-3.42,0-3.31-3.08-3.31-3.71v-.46c-.7,2.06-2.21,4.18-5.4,4.18-1.65,0-4.82-.44-4.82-3.77,0-5.02,7.37-5.31,10.22-5.31v-1.31c0-.67.15-4.18-2.21-4.18s-2.26,2.61-2.26,4.67l-4.53-1.39c0-2.5,3.08-3.8,6.79-3.8s6.68,1.28,6.73,4.7v6.91c0,.87.03,2.03.73,2.03s1.07-.81,1.22-1.16l.58.12Zm-7.05-4.82v-1.25c-2.41,0-5.69,1.42-5.69,5.22,0,1.39.47,2.02,1.78,2.02,2.35,0,3.91-3.58,3.91-5.99Z"/>
      <path class="cls-1" d="m88.15,28.72c-.17,1.31-1.28,2.41-3.31,2.41-1.51,0-4.59-.73-4.59-5.89v-8.18h-1.97v-.52c3.77,0,5.5-1.82,5.5-4.61-.03-4.01-2.68-4.78-5.06-4.78-3.89,0-6.28,2.65-9.97,4.68s-8.12,3.32-13,3.32c-5.31,0-9.64-3.16-9.64-8.21,0-.26.01-.51.04-.77.16-1.76.95-3.35,2.23-4.46.15-.13.73-.63,1.65-1.04,2.77-1.25,5.54-.32,6.09-.12.52.19,3.39,1.22,4.67,4.05.25.55.71,1.61.54,2.98-.23,1.88-1.48,3.03-1.88,3.36-.41.34-1.4,1.15-2.87,1.21-.42.02-1.81.08-2.81-.93-.23-.23-.96-.96-.86-2.03.1-1.08.98-1.65,1.04-1.69.07-.04.83-.5,1.73-.28,1.06.27,1.16,1.18,1.97,1.28.74.09,1.58-.57,1.92-1.27.74-1.53-.75-3.62-1.82-4.61-1.73-1.59-3.86-1.68-4.68-1.66-.66.02-2.67.07-4.26,1.62-1.69,1.65-1.71,3.83-1.72,4.46,0,.44,0,1.93.85,3.41,1.45,2.54,4.57,3.86,8.21,3.86,4.7,0,8.15-1.03,11.83-3.06,3.69-2.03,6.88-4.92,10.94-4.92,2.67,0,5.83,1.25,5.86,5.51v4.7h1.97v.52h-1.97v10.19c0,1.94.41,2.9,1.39,2.9,1.07,0,1.39-1.04,1.45-1.42h.52Z"/>
      <path class="cls-1" d="m99.24,28.75c0,.13-.05.5-.33.81-.28.31-.63.38-.85.42-.22.04-1.1.07-1.49-.06-.55-.19-.85-.59-.97-.76-.35-.49-.4-.98-.48-1.65-.03-.27-.04-.62-.04-1.32,0-.32,0-.45,0-1.03v-14.35h-.52c-1.31,1.54-4.21,2.7-4.88,2.7v.52c.87,0,.87,1.13.87,1.86v10.71c0,2.52-.46,4.01-1.8,4.01v.52h11v-2.41c-.09,0-.18,0-.29,0-.08,0-.15.01-.21.03Z"/>
    </g>
  </g>
</svg>