<?xml version="1.0" encoding="UTF-8"?>
<svg id="Capa_2" data-name="Capa 2" xmlns="http://www.w3.org/2000/svg" viewBox="0 0 89.76 63.17">
  <defs>
    <style>
      .cls-1 {
        fill: #169878;
      }
    </style>
  </defs>
  <g id="Capa_1-2" data-name="Capa 1">
    <g>
      <path class="cls-1" d="m60.98,1.35c-7.44,3.34-10.91,11.28-16,18.04-5.1,6.77-10.56,11.47-19.19,15.35-6.68,3-13.5,3.15-18.23-.31-2.79-2.04-4.03-4.75-4.39-5.55-.51-1.18-2.26-5.19-.52-9.61,1.64-4.16,5.27-5.9,6.47-6.48,1.49-.71,5.48-2.28,9.94-.8,2.78.94,7.24,3.55,7.14,6.97-.05,1.57-1.05,3.47-2.48,3.92-1.58.47-2.51-1.12-4.66-.75-1.83.34-2.86,1.79-2.95,1.94-.07.1-1.21,1.87-.51,3.93.7,2.05,2.64,2.79,3.25,3.02,2.68,1,5.16-.24,5.92-.63,2.65-1.32,3.81-3.61,4.28-4.57.45-.95,1.81-4.08.68-7.72-.82-2.66-2.53-4.21-3.45-5.03-4.67-4.15-10.78-3.66-11.89-3.58-1.15.1-7.02.68-11.07,5.23-1.33,1.5-1.98,2.92-2.15,3.28-1.44,3.09-1.58,6.67-.43,10.01.18.49.35.97.56,1.45,4.15,9.26,14.69,11.5,24.45,7.12,8.94-4.01,16.02-10.02,21.11-16.78,5.08-6.76,7.3-13.58,14.42-16.78,4.37-1.96,9.88-2.71,13.21,4.62.18.4.34.8.45,1.21l1.91-.86-.6-1.34c-3.57-7.8-10.4-7.49-15.3-5.29Z"/>
      <path class="cls-1" d="m28.79,61.81c7.44-3.34,10.91-11.28,16-18.04,5.1-6.77,10.56-11.47,19.19-15.35,6.68-3,13.5-3.15,18.23.31,2.79,2.04,4.03,4.75,4.39,5.55.51,1.18,2.26,5.19.52,9.61-1.64,4.16-5.27,5.9-6.47,6.48-1.49.71-5.48,2.28-9.94.8-2.78-.94-7.24-3.55-7.14-6.97.05-1.57,1.05-3.47,2.48-3.92,1.58-.47,2.51,1.12,4.66.75,1.83-.34,2.86-1.79,2.95-1.94.07-.1,1.21-1.87.51-3.93-.7-2.05-2.64-2.79-3.25-3.02-2.68-1-5.16.24-5.92.63-2.65,1.32-3.81,3.61-4.28,4.57-.45.95-1.81,4.08-.68,7.72.82,2.66,2.53,4.21,3.45,5.03,4.67,4.15,10.78,3.66,11.89,3.58,1.15-.1,7.02-.68,11.07-5.23,1.33-1.5,1.98-2.92,2.15-3.28,1.44-3.09,1.58-6.67.43-10.01-.18-.49-.35-.97-.56-1.45-4.15-9.26-14.69-11.5-24.45-7.12-8.94,4.01-16.02,10.02-21.11,16.78-5.08,6.76-7.3,13.58-14.42,16.78-4.37,1.96-9.88,2.71-13.21-4.62-.18-.4-.34-.8-.45-1.21l-1.91.86.6,1.34c3.57,7.8,10.4,7.49,15.3,5.29Z"/>
    </g>
  </g>
</svg>